<svg xmlns="http://www.w3.org/2000/svg" width="163.839" height="163.839" fill-rule="evenodd" clip-rule="evenodd" image-rendering="optimizeQuality" shape-rendering="geometricPrecision" text-rendering="geometricPrecision" viewBox="0 0 1707 1707" id="magnifying-glass"><defs><linearGradient id="a" x1="-69.024" x2="1775.69" y1="84.701" y2="1621.96" gradientUnits="userSpaceOnUse"><stop offset="0" stop-color="#08b6ff"></stop><stop offset=".012" stop-color="#2790ff"></stop><stop offset=".259" stop-color="#47c7ff"></stop><stop offset=".478" stop-color="#4cc9ff"></stop><stop offset=".8" stop-color="#4a9eff"></stop><stop offset=".929" stop-color="#466aff"></stop><stop offset="1" stop-color="#466aff"></stop></linearGradient></defs><path fill="url(#a)" d="M1108 1199c-160,0 -310,-62 -423,-175 -234,-234 -234,-614 0,-847 113,-113 263,-175 423,-175 160,0 310,62 423,175 234,233 234,613 0,847 -113,113 -263,175 -423,175zm-959 506c-23,0 -44,-9 -60,-25l-64 -63c-16,-16 -25,-38 -25,-61 0,-22 9,-44 25,-60l76 -76 184 184 -76 76c-16,16 -37,25 -60,25zm-24 -308l191 -192 184 184 -191 192 -184 -184zm215 -215l76 -76c16,-16 37,-25 60,-25 15,0 31,4 44,12l96 -96c14,17 29,34 45,50 16,16 33,32 51,46l-97 97c6,12 9,25 9,39 0,23 -8,45 -24,61l-76 76 -184 -184zm768 -164c-111,0 -216,-44 -295,-123 -163,-162 -163,-427 0,-590 79,-79 184,-122 295,-122 112,0 216,43 295,122 79,79 122,184 122,295 0,112 -43,217 -122,295 -79,79 -183,123 -295,123zm0 -802c-102,0 -199,40 -271,113 -150,150 -150,393 0,543 72,72 169,112 271,112 103,0 199,-40 272,-112 72,-73 112,-169 112,-272 0,-102 -40,-199 -112,-271 -73,-73 -169,-113 -272,-113z"></path></svg>